<svg width="214" height="214" viewBox="0 0 214 214" fill="none" xmlns="http://www.w3.org/2000/svg">
<g id="Group 2147223228">
<rect id="Rectangle 40175" y="0.666016" width="213.33" height="213.33" rx="106.665" fill="#DFE3FF"/>
<g id="Vector">
<path d="M59.7254 123.051C58.8958 123.051 58.1001 123.38 57.5135 123.967C56.9269 124.553 56.5974 125.349 56.5974 126.179C56.5974 127.008 56.9269 127.804 57.5135 128.39C58.1001 128.977 58.8958 129.307 59.7254 129.307H112.901C113.731 129.307 114.527 128.977 115.113 128.39C115.7 127.804 116.029 127.008 116.029 126.179C116.029 125.349 115.7 124.553 115.113 123.967C114.527 123.38 113.731 123.051 112.901 123.051H59.7254Z" fill="#FBD300"/>
<path d="M59.7254 66.7465C58.8958 66.7465 58.1001 67.076 57.5135 67.6627C56.9269 68.2493 56.5974 69.0449 56.5974 69.8745C56.5974 70.7041 56.9269 71.4997 57.5135 72.0863C58.1001 72.6729 58.8958 73.0025 59.7254 73.0025H94.1334C94.963 73.0025 95.7587 72.6729 96.3453 72.0863C96.9319 71.4997 97.2614 70.7041 97.2614 69.8745C97.2614 69.0449 96.9319 68.2493 96.3453 67.6627C95.7587 67.076 94.963 66.7465 94.1334 66.7465H59.7254Z" fill="#FBA000"/>
<path d="M122.285 88.6425C122.285 87.8129 122.615 87.0173 123.202 86.4307C123.788 85.8441 124.584 85.5145 125.413 85.5145H147.31C148.139 85.5145 148.935 85.8441 149.521 86.4307C150.108 87.0173 150.438 87.8129 150.438 88.6425C150.438 89.4721 150.108 90.2677 149.521 90.8544C148.935 91.441 148.139 91.7705 147.31 91.7705H125.413C124.584 91.7705 123.788 91.441 123.202 90.8544C122.615 90.2677 122.285 89.4721 122.285 88.6425Z" fill="#FBA000"/>
<path d="M78.4934 85.5145C77.6638 85.5145 76.8682 85.8441 76.2816 86.4307C75.6949 87.0173 75.3654 87.8129 75.3654 88.6425C75.3654 89.4721 75.6949 90.2677 76.2816 90.8544C76.8682 91.441 77.6638 91.7705 78.4934 91.7705H109.773C110.603 91.7705 111.399 91.441 111.985 90.8544C112.572 90.2677 112.901 89.4721 112.901 88.6425C112.901 87.8129 112.572 87.0173 111.985 86.4307C111.399 85.8441 110.603 85.5145 109.773 85.5145H78.4934Z" fill="#FBD300"/>
<path d="M109.773 66.7465C108.944 66.7465 108.148 67.076 107.562 67.6627C106.975 68.2493 106.645 69.0449 106.645 69.8745C106.645 70.7041 106.975 71.4997 107.562 72.0863C108.148 72.6729 108.944 73.0025 109.773 73.0025H153.566C154.395 73.0025 155.191 72.6729 155.777 72.0863C156.364 71.4997 156.694 70.7041 156.694 69.8745C156.694 69.0449 156.364 68.2493 155.777 67.6627C155.191 67.076 154.395 66.7465 153.566 66.7465H109.773Z" fill="#000CFF"/>
<path d="M0 182.092V171.665H213.33V182.092H0Z" fill="#2534B4"/>
<path fill-rule="evenodd" clip-rule="evenodd" d="M29.6744 161.238C24.8711 161.238 20.8638 159.629 17.6524 156.411C14.441 153.192 12.8318 149.185 12.8248 144.389V42.5305C12.8248 37.7343 14.434 33.7269 17.6524 30.5086C20.8708 27.2902 24.8746 25.6845 29.6639 25.6914H183.666C188.462 25.6914 192.466 27.2971 195.678 30.5086C198.889 33.72 200.498 37.7273 200.505 42.5305V144.399C200.505 149.196 198.896 153.199 195.678 156.411C192.459 159.622 188.452 161.231 183.656 161.238H29.6744ZM183.666 150.812H29.6639C28.0582 150.805 26.588 150.134 25.2534 148.799C23.9188 147.465 23.2515 145.998 23.2515 144.399V42.5305C23.2515 40.9248 23.9188 39.4547 25.2534 38.12C26.595 36.7785 28.0686 36.1077 29.6744 36.1077H183.656C185.261 36.1077 186.735 36.7785 188.077 38.12C189.411 39.4616 190.078 40.9318 190.078 42.5305V144.389C190.085 145.988 189.418 147.458 188.077 148.799C186.735 150.141 185.265 150.812 183.666 150.812Z" fill="#2534B4"/>
<path d="M69.1094 107.411C69.1094 106.581 69.4389 105.785 70.0256 105.199C70.6122 104.612 71.4078 104.283 72.2374 104.283H134.798C135.627 104.283 136.423 104.612 137.009 105.199C137.596 105.785 137.926 106.581 137.926 107.411C137.926 108.24 137.596 109.036 137.009 109.622C136.423 110.209 135.627 110.539 134.798 110.539H72.2374C71.4078 110.539 70.6122 110.209 70.0256 109.622C69.4389 109.036 69.1094 108.24 69.1094 107.411Z" fill="#000CFF"/>
</g>
</g>
</svg>
