<svg width="30" height="30" viewBox="0 0 30 30" fill="none" xmlns="http://www.w3.org/2000/svg">
<path fill-rule="evenodd" clip-rule="evenodd" d="M4.39453 4.39336C7.20469 1.58133 11.0227 0 15 0C18.9773 0 22.7953 1.58133 25.6055 4.39336C28.418 7.20539 30 11.0234 30 15C30 18.9766 28.418 22.7946 25.6055 25.6066C22.7953 28.4187 18.9773 30 15 30C11.0227 30 7.20469 28.4187 4.39453 25.6066C1.58203 22.7946 0 18.9766 0 15C0.000804958 11.0217 1.5815 7.20652 4.39453 4.39336ZM15.5367 11.0738C14.0789 11.6806 11.1633 12.9366 6.78984 14.8416C6.07969 15.124 5.70703 15.4003 5.67422 15.6703C5.61651 16.1264 6.18773 16.3063 6.96391 16.5508C7.07036 16.5843 7.18068 16.619 7.29375 16.6559C8.06016 16.9048 9.09141 17.1961 9.62578 17.2076C10.1133 17.2181 10.6547 17.0177 11.2523 16.6066C15.3398 13.8488 17.4469 12.4547 17.5805 12.4247C17.6742 12.4036 17.8031 12.3769 17.8898 12.4549C17.9789 12.5327 17.9695 12.6804 17.9602 12.72C17.9049 12.9609 15.6695 15.0393 14.5062 16.1207C14.1405 16.4608 13.8808 16.7022 13.8281 16.7571C13.7104 16.8794 13.5904 16.9951 13.475 17.1063C12.7637 17.792 12.2301 18.3063 13.5047 19.1461C14.1227 19.5532 14.616 19.8892 15.109 20.225C15.6387 20.5858 16.1681 20.9464 16.8516 21.3947C17.0273 21.5099 17.1952 21.6295 17.3586 21.746C17.9798 22.1889 18.5379 22.5867 19.2281 22.5232C19.6289 22.4864 20.0438 22.1095 20.2523 20.9855C20.7492 18.3288 21.7266 12.573 21.9516 10.2012C21.9727 9.99352 21.9469 9.7275 21.9281 9.61078C21.907 9.49395 21.8648 9.32754 21.7148 9.20449C21.5344 9.05859 21.2578 9.02789 21.1336 9.02988C20.5688 9.04008 19.7039 9.34102 15.5367 11.0738Z" fill="url(#paint0_linear_465_1882)"/>
<defs>
<linearGradient id="paint0_linear_465_1882" x1="1500" y1="0" x2="1500" y2="3000" gradientUnits="userSpaceOnUse">
<stop stop-color="#2AABEE"/>
<stop offset="1" stop-color="#229ED9"/>
</linearGradient>
</defs>
</svg>
